HIERARCHY
ROOT Hips
{
    OFFSET   0.000000   0.000000   0.000000
    CHANNELS 6 Xposition Yposition Zposition Zrotation Xrotation Yrotation
    JOINT Chest
    {
        OFFSET   0.000000   8.007230   0.000000
        CHANNELS 3 Zrotation Xrotation Yrotation
        JOINT Chest2
        {
            OFFSET   0.000000  22.077100   0.000000
            CHANNELS 3 Zrotation Xrotation Yrotation
            JOINT Neck
            {
                OFFSET   0.000000  23.255100   0.000000
                CHANNELS 3 Zrotation Xrotation Yrotation
                JOINT Head
                {
                    OFFSET   0.000000  14.370100   1.956600
                    CHANNELS 3 Zrotation Xrotation Yrotation
                    End Site
                    {
                        OFFSET   0.000000  19.566000   0.000000
                    }
                }
            }
            JOINT LeftCollar
            {
                OFFSET   3.911900  19.017000  -0.467063
                CHANNELS 3 Zrotation Xrotation Yrotation
                JOINT LeftShoulder
                {
                    OFFSET  10.383700   0.000000   0.000000
                    CHANNELS 3 Zrotation Xrotation Yrotation
                    JOINT LeftElbow
                    {
                        OFFSET  26.662100   0.001193   0.000980
                        CHANNELS 3 Zrotation Xrotation Yrotation
                        JOINT LeftWrist
                        {
                            OFFSET  28.869000  -0.000059  -0.000082
                            CHANNELS 3 Zrotation Xrotation Yrotation
                            JOINT LeftFinger0
                            {
                                OFFSET   2.044650  -2.323450   3.252850
                                CHANNELS 3 Zrotation Xrotation Yrotation
                                JOINT LeftFinger01
                                {
                                    OFFSET   3.088130   0.000000   0.000000
                                    CHANNELS 3 Zrotation Xrotation Yrotation
                                    JOINT LeftFinger02
                                    {
                                        OFFSET   2.639460   0.000000   0.000000
                                        CHANNELS 3 Zrotation Xrotation Yrotation
                                        End Site
                                        {
                                            OFFSET   2.582190   0.000000   0.000000
                                        }
                                    }
                                }
                            }
                            JOINT LeftFinger1
                            {
                                OFFSET   8.364480   0.000000   3.252850
                                CHANNELS 3 Zrotation Xrotation Yrotation
                                JOINT LeftFinger11
                                {
                                    OFFSET   4.646930   0.000000   0.000000
                                    CHANNELS 3 Zrotation Xrotation Yrotation
                                    JOINT LeftFinger12
                                    {
                                        OFFSET   2.323470   0.000000   0.000000
                                        CHANNELS 3 Zrotation Xrotation Yrotation
                                        End Site
                                        {
                                            OFFSET   2.273050   0.000000   0.000000
                                        }
                                    }
                                }
                            }
                            JOINT LeftFinger2
                            {
                                OFFSET   8.364490   0.000016   1.078090
                                CHANNELS 3 Zrotation Xrotation Yrotation
                                JOINT LeftFinger21
                                {
                                    OFFSET   5.111610   0.000000   0.000000
                                    CHANNELS 3 Zrotation Xrotation Yrotation
                                    JOINT LeftFinger22
                                    {
                                        OFFSET   2.788150   0.000016   0.000000
                                        CHANNELS 3 Zrotation Xrotation Yrotation
                                        End Site
                                        {
                                            OFFSET   2.727660   0.000000   0.000000
                                        }
                                    }
                                }
                            }
                            JOINT LeftFinger3
                            {
                                OFFSET   7.899780   0.000015  -1.078090
                                CHANNELS 3 Zrotation Xrotation Yrotation
                                JOINT LeftFinger31
                                {
                                    OFFSET   4.646930   0.000000   0.000000
                                    CHANNELS 3 Zrotation Xrotation Yrotation
                                    JOINT LeftFinger32
                                    {
                                        OFFSET   2.323470   0.000000   0.000000
                                        CHANNELS 3 Zrotation Xrotation Yrotation
                                        End Site
                                        {
                                            OFFSET   2.273050   0.000000   0.000000
                                        }
                                    }
                                }
                            }
                            JOINT LeftFinger4
                            {
                                OFFSET   7.435090   0.000000  -3.252850
                                CHANNELS 3 Zrotation Xrotation Yrotation
                                JOINT LeftFinger41
                                {
                                    OFFSET   3.717550   0.000000   0.000000
                                    CHANNELS 3 Zrotation Xrotation Yrotation
                                    JOINT LeftFinger42
                                    {
                                        OFFSET   1.858770   0.000000   0.000000
                                        CHANNELS 3 Zrotation Xrotation Yrotation
                                        End Site
                                        {
                                            OFFSET   1.818440   0.000000   0.000000
                                        }
                                    }
                                }
                            }
                        }
                    }
                }
            }
            JOINT RightCollar
            {
                OFFSET  -3.911910  19.017000  -0.467062
                CHANNELS 3 Zrotation Xrotation Yrotation
                JOINT RightShoulder
                {
                    OFFSET -10.383700   0.000014   0.000000
                    CHANNELS 3 Zrotation Xrotation Yrotation
                    JOINT RightElbow
                    {
                        OFFSET -26.662100   0.001225   0.001091
                        CHANNELS 3 Zrotation Xrotation Yrotation
                        JOINT RightWrist
                        {
                            OFFSET -28.869000  -0.000020  -0.000085
                            CHANNELS 3 Zrotation Xrotation Yrotation
                            JOINT RightFinger0
                            {
                                OFFSET  -2.044650  -2.323490   3.252850
                                CHANNELS 3 Zrotation Xrotation Yrotation
                                JOINT RightFinger01
                                {
                                    OFFSET  -3.088130   0.000000   0.000000
                                    CHANNELS 3 Zrotation Xrotation Yrotation
                                    JOINT RightFinger02
                                    {
                                        OFFSET  -2.639460   0.000000   0.000000
                                        CHANNELS 3 Zrotation Xrotation Yrotation
                                        End Site
                                        {
                                            OFFSET  -2.582190   0.000000   0.000000
                                        }
                                    }
                                }
                            }
                            JOINT RightFinger1
                            {
                                OFFSET  -8.364480   0.000000   3.252850
                                CHANNELS 3 Zrotation Xrotation Yrotation
                                JOINT RightFinger11
                                {
                                    OFFSET  -4.646930   0.000000   0.000000
                                    CHANNELS 3 Zrotation Xrotation Yrotation
                                    JOINT RightFinger12
                                    {
                                        OFFSET  -2.323470   0.000000   0.000000
                                        CHANNELS 3 Zrotation Xrotation Yrotation
                                        End Site
                                        {
                                            OFFSET  -2.273050   0.000000   0.000000
                                        }
                                    }
                                }
                            }
                            JOINT RightFinger2
                            {
                                OFFSET  -8.364480   0.000000   1.078090
                                CHANNELS 3 Zrotation Xrotation Yrotation
                                JOINT RightFinger21
                                {
                                    OFFSET  -5.111620   0.000000   0.000000
                                    CHANNELS 3 Zrotation Xrotation Yrotation
                                    JOINT RightFinger22
                                    {
                                        OFFSET  -2.788160   0.000000   0.000000
                                        CHANNELS 3 Zrotation Xrotation Yrotation
                                        End Site
                                        {
                                            OFFSET  -2.727660   0.000000   0.000000
                                        }
                                    }
                                }
                            }
                            JOINT RightFinger3
                            {
                                OFFSET  -7.899780   0.000000  -1.078090
                                CHANNELS 3 Zrotation Xrotation Yrotation
                                JOINT RightFinger31
                                {
                                    OFFSET  -4.646930   0.000000   0.000000
                                    CHANNELS 3 Zrotation Xrotation Yrotation
                                    JOINT RightFinger32
                                    {
                                        OFFSET  -2.323470   0.000000   0.000000
                                        CHANNELS 3 Zrotation Xrotation Yrotation
                                        End Site
                                        {
                                            OFFSET  -2.273050   0.000000   0.000000
                                        }
                                    }
                                }
                            }
                            JOINT RightFinger4
                            {
                                OFFSET  -7.435090   0.000000  -3.252850
                                CHANNELS 3 Zrotation Xrotation Yrotation
                                JOINT RightFinger41
                                {
                                    OFFSET  -3.717550   0.000000   0.000000
                                    CHANNELS 3 Zrotation Xrotation Yrotation
                                    JOINT RightFinger42
                                    {
                                        OFFSET  -1.858760   0.000000   0.000000
                                        CHANNELS 3 Zrotation Xrotation Yrotation
                                        End Site
                                        {
                                            OFFSET  -1.818440   0.000000   0.000000
                                        }
                                    }
                                }
                            }
                        }
                    }
                }
            }
        }
    }
    JOINT LeftHip
    {
        OFFSET   9.783030   0.000000   0.000000
        CHANNELS 3 Zrotation Xrotation Yrotation
        JOINT LeftKnee
        {
            OFFSET   0.000063 -41.789100   0.000608
            CHANNELS 3 Zrotation Xrotation Yrotation
            JOINT LeftAnkle
            {
                OFFSET   0.000048 -41.133200  -0.000184
                CHANNELS 3 Zrotation Xrotation Yrotation
                JOINT LeftToe
                {
                    OFFSET   0.000000  -6.358960  14.674500
                    CHANNELS 3 Zrotation Xrotation Yrotation
                    End Site
                    {
                        OFFSET   0.000000   0.000000   3.913200
                    }
                }
            }
        }
    }
    JOINT RightHip
    {
        OFFSET  -9.783030   0.000000   0.000000
        CHANNELS 3 Zrotation Xrotation Yrotation
        JOINT RightKnee
        {
            OFFSET   0.000071 -41.789100   0.001239
            CHANNELS 3 Zrotation Xrotation Yrotation
            JOINT RightAnkle
            {
                OFFSET   0.000037 -41.133200  -0.000166
                CHANNELS 3 Zrotation Xrotation Yrotation
                JOINT RightToe
                {
                    OFFSET   0.000000  -6.358960  14.674500
                    CHANNELS 3 Zrotation Xrotation Yrotation
                    End Site
                    {
                        OFFSET   0.000000   0.000000   3.913200
                    }
                }
            }
        }
    }
}
MOTION
Frames: 4
Frame Time:   0.016667
  1.724760  89.374000   0.679355  -3.515490 -16.343800   0.056741   0.712222  11.417900   4.394220   0.524774  22.856500   8.915280   1.944180  -2.603150   0.088630   3.212820  -5.260350  -3.316470  -8.074700 -10.208100   0.362264 -67.795100  32.983500  -7.975430   1.630170  -9.491470 -29.743400  18.661200 -14.364500   6.352920  37.260100  31.865700 -59.864100 -34.664400   0.001384   0.001038 -12.332200   0.000342  -0.001450 -32.373300   4.437570  -6.966960 -26.710700   0.003832  -0.002338 -18.697500   0.005357  -0.001929 -31.525400   0.338064  -0.551512 -47.292400   0.000217   0.002573 -31.496700  -0.002834   0.002381 -28.767500   0.234173  -0.426522 -40.871800   0.000278   0.000402 -27.220600  -0.003631   0.002959 -34.683000   0.280020  -0.403847 -52.026000   0.000078   0.001906 -34.649200  -0.003769  -0.003047  11.735200  -3.942610  17.638600  50.545500  15.085100  57.836200 -30.628400 -21.785300  37.537300 -40.340000 -52.088300  -8.366920 -51.474600  44.563000  74.892700  28.589500  -0.001780   0.001089   9.294790   0.002945  -0.004682  14.876800   3.472730  12.854600  12.492600   0.001017   0.000488   8.744810   0.009399   0.008195  12.924000   3.011740  12.890100  13.263700   0.001466   0.000655   8.833580   0.002036   0.000599   7.530900   1.410150  10.564800   7.660050   0.001690   0.001087   5.101610   0.001170   0.001021  13.051100   1.713900   7.395580  19.739700   0.003347   0.000897  13.146600   0.002200  -0.002111   2.548990  19.003200   6.598990   0.429186  -0.034175   3.641870  -0.979316  -3.305320  -1.114950  -0.000000   0.000000   0.000000   3.250730  17.988200   0.030740  -0.779625   4.556480 -12.034700   0.690858  -6.218840  -0.592958  -0.000000   0.000000   0.000000
  1.765070  89.380200   0.655346  -3.537650 -16.291600  -0.070871   0.729357  11.381200   4.335580   0.575547  22.784600   8.789310   1.898790  -2.590960   0.085875   3.137430  -5.236580  -3.105030  -8.052870 -10.169700   0.474508 -67.802200  32.767600  -7.816270   1.424460  -9.566010 -29.312700  18.606500 -14.327700   6.400750  37.214000  32.003700 -60.183700 -34.736400   0.001459   0.001089 -12.368200   0.000381  -0.001497 -32.440300   4.514380  -7.058800 -26.770400   0.003813  -0.002318 -18.739300   0.005397  -0.001891 -31.485000   0.456096  -0.745467 -47.234100   0.000217   0.002574 -31.457900  -0.002835   0.002348 -28.768500   0.300965  -0.547989 -40.947900   0.000278   0.000404 -27.271300  -0.003628   0.002998 -34.724800   0.313578  -0.452897 -52.089300   0.000086   0.001905 -34.691400  -0.003772  -0.003000  11.747300  -3.952600  17.698600  50.668800  15.059700  57.645700 -30.661200 -21.497900  37.836300 -39.646300 -51.732600  -7.813010 -50.908700  44.211900  75.100700  28.692600  -0.001743   0.001021   9.346290   0.002948  -0.004538  15.096500   3.555130  12.946300  12.682100   0.001003   0.000734   8.877430   0.009327   0.008789  13.103100   3.060870  12.922500  13.449000   0.001513   0.000849   8.957050   0.001736   0.000579   7.694750   1.421590  10.411100   7.822360   0.001755   0.001242   5.209700   0.001223   0.001558  13.257300   1.708610   7.216740  20.043900   0.003508   0.000975  13.349200   0.002367  -0.002003   2.529390  18.930900   6.581060   0.395640   0.000308   3.736500  -0.968422  -3.321520  -1.078050  -0.000000   0.000000   0.000000   3.209730  17.976600   0.066459  -0.795973   4.480400 -12.032600   0.722528  -6.173990  -0.522878  -0.000000   0.000000   0.000000
  1.789740  89.388400   0.630914  -3.589410 -16.222800  -0.232700   0.749549  11.334600   4.290470   0.631210  22.693200   8.690310   1.866040  -2.589220   0.084357   3.083010  -5.233730  -2.939460  -8.048160 -10.102300   0.536813 -67.765400  32.524300  -7.686630   1.238080  -9.472800 -28.833200  18.440000 -14.120500   6.355480  37.225800  32.149800 -60.447100 -34.808800   0.001531   0.001104 -12.404400   0.000416  -0.001521 -32.448300   4.570510  -7.139500 -26.779300   0.003808  -0.002299 -18.745500   0.005437  -0.001855 -31.382100   0.569298  -0.934280 -47.081900   0.000212   0.002575 -31.356500  -0.002834   0.002317 -28.766400   0.367869  -0.669872 -40.891700   0.000275   0.000406 -27.233900  -0.003632   0.003038 -34.688300   0.321524  -0.465796 -52.034800   0.000089   0.001905 -34.655200  -0.003774  -0.002952  11.775000  -3.951110  17.721700  50.731000  15.063200  57.426500 -30.768600 -21.178200  38.017400 -38.919800 -51.434900  -7.318810 -49.998000  43.641600  74.805200  28.906500  -0.001699   0.000937   9.453260   0.002949  -0.004388  15.335300   3.623000  12.959700  12.883300   0.001011   0.000857   9.018270   0.009287   0.009366  13.326100   3.096800  12.855200  13.674600   0.001548   0.000947   9.107340   0.001415   0.000551   7.904880   1.431250  10.197100   8.031410   0.001802   0.001330   5.348920   0.001260   0.002158  13.478600   1.676360   6.945340  20.368300   0.003618   0.001038  13.565200   0.002464  -0.001899   2.558780  18.855000   6.539190   0.342532   0.043871   3.845780  -0.950412  -3.358040  -1.005440  -0.000000   0.000000   0.000000   3.198800  17.920900   0.100310  -0.810185   4.429660 -11.978300   0.746215  -6.127050  -0.451526   0.000000   0.000000   0.000000
  1.803830  89.397500   0.606907  -3.658680 -16.140300  -0.428424   0.770973  11.278800   4.252130   0.687691  22.583400   8.604790   1.841020  -2.588600   0.083316   3.041910  -5.233020  -2.797630  -8.051160 -10.015600   0.579899 -67.709100  32.294400  -7.580010   1.083090  -9.247280 -28.303100  18.235100 -13.768000   6.282790  37.194800  32.227300 -60.608700 -34.883700   0.001599   0.001127 -12.441800   0.000450  -0.001543 -32.441500   4.607530  -7.202860 -26.780600   0.003802  -0.002282 -18.746400   0.005479  -0.001820 -31.246900   0.673539  -1.110580 -46.881800   0.000208   0.002575 -31.223200  -0.002833   0.002287 -28.763100   0.429694  -0.782586 -40.781500   0.000271   0.000408 -27.160500  -0.003636   0.003078 -34.616800   0.326381  -0.473419 -51.927600   0.000091   0.001905 -34.583800  -0.003775  -0.002904  11.807400  -3.943980  17.734900  50.739200  15.088900  57.147900 -30.883900 -20.891500  38.147000 -38.080200 -51.140500  -6.824410 -48.870300  43.002200  74.327300  29.129300  -0.001660   0.000883   9.564640   0.002949  -0.004232  15.662400   3.700040  12.962600  13.158500   0.001071   0.001229   9.210930   0.009274   0.009925  13.643800   3.135180  12.697300  13.991800   0.001678   0.001245   9.318550   0.001235   0.000516   8.218160   1.448220   9.924000   8.342410   0.001969   0.001611   5.556050   0.001388   0.002780  13.800000   1.629130   6.600240  20.837900   0.004004   0.001268  13.878000   0.002785  -0.001800   2.587580  18.775800   6.509220   0.293126   0.080046   3.965830  -0.927957  -3.400800  -0.919195   0.000000   0.000000   0.000000   3.184760  17.829800   0.146379  -0.823657   4.390540 -11.892600   0.760622  -6.077120  -0.376037   0.000000   0.000000   0.000000
